<svg width="25" height="25" viewBox="0 0 25 25" fill="none" xmlns="http://www.w3.org/2000/svg">
<rect width="25" height="25" rx="2" fill="#528569"/>
<path d="M10.4641 8.10593H10.3569C10.4159 8.10593 10.4641 8.05771 10.4641 7.99878V8.10593H14.5355V7.99878C14.5355 8.05771 14.5837 8.10593 14.6427 8.10593H14.5355V9.07021H15.4998V7.99878C15.4998 7.52601 15.1154 7.14164 14.6427 7.14164H10.3569C9.88417 7.14164 9.49979 7.52601 9.49979 7.99878V9.07021H10.4641V8.10593ZM17.2141 9.07021H7.78551C7.54845 9.07021 7.35693 9.26173 7.35693 9.49878V9.92735C7.35693 9.98628 7.40515 10.0345 7.46408 10.0345H8.27301L8.60381 17.039C8.62524 17.4957 9.00292 17.8559 9.45961 17.8559H15.54C15.998 17.8559 16.3743 17.497 16.3958 17.039L16.7266 10.0345H17.5355C17.5944 10.0345 17.6427 9.98628 17.6427 9.92735V9.49878C17.6427 9.26173 17.4511 9.07021 17.2141 9.07021ZM15.4368 16.8916H9.56274L9.23863 10.0345H15.761L15.4368 16.8916Z" fill="white"/>
</svg>
