<svg width="25" height="25" viewBox="0 0 25 25" fill="none" xmlns="http://www.w3.org/2000/svg">
<rect width="25" height="25" rx="2" fill="#528569"/>
<g clip-path="url(#clip0_275_5351)">
<path fill-rule="evenodd" clip-rule="evenodd" d="M16.9044 7.71166C16.5996 7.40702 16.1864 7.23589 15.7555 7.23589C15.3246 7.23589 14.9113 7.40702 14.6066 7.71166L14.2237 8.09516L16.9049 10.7764L17.2873 10.3935C17.4382 10.2426 17.558 10.0634 17.6397 9.86623C17.7213 9.66906 17.7634 9.45773 17.7634 9.24431C17.7634 9.03089 17.7213 8.81956 17.6397 8.62239C17.558 8.42521 17.4382 8.24606 17.2873 8.09516L16.9044 7.71166ZM16.1384 11.5423L13.4572 8.86108L8.53345 13.7854C8.4257 13.8931 8.35043 14.029 8.31624 14.1775L7.75887 16.5907C7.7381 16.6802 7.74048 16.7736 7.76579 16.8621C7.7911 16.9505 7.8385 17.031 7.90352 17.096C7.96855 17.161 8.04906 17.2084 8.13747 17.2337C8.22588 17.2591 8.31928 17.2614 8.40887 17.2407L10.8225 16.6838C10.9708 16.6495 11.1065 16.5743 11.2142 16.4666L16.1384 11.5423Z" fill="white"/>
</g>
<defs>
<clipPath id="clip0_275_5351">
<rect width="13" height="13" fill="white" transform="translate(6 6)"/>
</clipPath>
</defs>
</svg>
