<svg width="18" height="16" viewBox="0 0 18 16" fill="none" xmlns="http://www.w3.org/2000/svg">
<path fill-rule="evenodd" clip-rule="evenodd" d="M2.94856 0.292886C2.55804 -0.0976387 1.92487 -0.0976387 1.53435 0.292886C1.14382 0.68341 1.14382 1.31657 1.53435 1.7071L15.5343 15.7071C15.9249 16.0976 16.558 16.0976 16.9486 15.7071C17.3391 15.3166 17.3391 14.6834 16.9486 14.2929L2.94856 0.292886ZM0.599161 7.4837C1.28612 6.03586 2.0996 4.84759 3.04015 3.92L5.8576 6.73745C5.70765 7.12955 5.62551 7.55518 5.62551 7.99999C5.62551 9.95267 7.20855 11.5357 9.16123 11.5357C9.60604 11.5357 10.0317 11.4536 10.4238 11.3036L12.9302 13.8101C11.8206 14.3024 10.5912 14.5491 9.24159 14.5491C5.38243 14.5491 2.50363 12.5301 0.599161 8.5183C0.522772 8.35654 0.483154 8.17988 0.483154 8.001C0.483154 7.82211 0.522772 7.64545 0.599161 7.4837ZM6.91123 7.99999C6.91123 7.93295 6.91422 7.86622 6.92013 7.79997L9.36125 10.2411C9.29501 10.247 9.22827 10.25 9.16123 10.25C8.56449 10.25 7.99219 10.0129 7.57024 9.59098C7.14828 9.16903 6.91123 8.59673 6.91123 7.99999ZM9.11331 5.7505L11.4107 8.04792C11.4111 8.03196 11.4112 8.01599 11.4112 7.99999C11.4112 7.40326 11.1742 6.83096 10.7522 6.409C10.3303 5.98705 9.75797 5.74999 9.16123 5.74999C9.14524 5.74999 9.12926 5.75016 9.11331 5.7505ZM12.697 7.99999C12.697 8.40062 12.6303 8.78568 12.5075 9.14471L15.4429 12.0801C16.3835 11.1525 17.197 9.96418 17.884 8.51629C18.0387 8.19084 18.0387 7.81316 17.884 7.48169C15.9795 3.46986 13.1007 1.45089 9.24159 1.45089C7.89187 1.45089 6.66243 1.6976 5.55277 2.18998L8.01651 4.65371C8.37554 4.53092 8.7606 4.46428 9.16123 4.46428C11.1139 4.46428 12.697 6.04732 12.697 7.99999Z" fill="#90CFA5"/>
</svg>
