<svg width="18" height="18" viewBox="0 0 18 18" fill="none" xmlns="http://www.w3.org/2000/svg">
<path d="M6.66976 9C6.66976 9.59674 6.90681 10.169 7.32877 10.591C7.75073 11.0129 8.32302 11.25 8.91976 11.25C9.5165 11.25 10.0888 11.0129 10.5107 10.591C10.9327 10.169 11.1698 9.59674 11.1698 9C11.1698 8.40326 10.9327 7.83097 10.5107 7.40901C10.0888 6.98705 9.5165 6.75 8.91976 6.75C8.32302 6.75 7.75073 6.98705 7.32877 7.40901C6.90681 7.83097 6.66976 8.40326 6.66976 9ZM17.6425 8.4817C15.7381 4.46987 12.8593 2.45089 9.00012 2.45089C5.13896 2.45089 2.26217 4.46987 0.357705 8.48371C0.281317 8.64546 0.241699 8.82212 0.241699 9.00101C0.241699 9.17989 0.281317 9.35655 0.357705 9.5183C2.26217 13.5301 5.14096 15.5491 9.00012 15.5491C12.8613 15.5491 15.7381 13.5301 17.6425 9.5163C17.7972 9.19085 17.7972 8.81317 17.6425 8.4817ZM8.91976 12.5357C6.96708 12.5357 5.38404 10.9527 5.38404 9C5.38404 7.04732 6.96708 5.46429 8.91976 5.46429C10.8724 5.46429 12.4555 7.04732 12.4555 9C12.4555 10.9527 10.8724 12.5357 8.91976 12.5357Z" fill="#90CFA5"/>
</svg>
